<?xml version="1.0" encoding="utf-8"?>
<!-- Generator: Adobe Illustrator 24.1.0, SVG Export Plug-In . SVG Version: 6.00 Build 0)  -->
<svg version="1.1" id="Laag_1" xmlns="http://www.w3.org/2000/svg" xmlns:xlink="http://www.w3.org/1999/xlink" x="0px" y="0px"
	 viewBox="0 0 517.2 135.8" style="enable-background:new 0 0 517.2 135.8;" xml:space="preserve">
<style type="text/css">
	.st0{fill:#1D1D1B;}
</style>
<path class="st0" d="M88.1,135.8h48L92.3,0h-48l11.6,36.1H32.4L0,135.8h48l19.5-62.3h0.3L88.1,135.8z M85.7,9l38,117.8H94.6L56.6,9
	C56.6,9,85.7,9,85.7,9z M65.1,64.5H47.3l-6.4-19.4h18L65.1,64.5z M41.5,126.8h-29l22.8-70.1l5.6,16.8h17.4L41.5,126.8z"/>
<g>
	<path class="st0" d="M435.4,28c0-8.9-7.2-16.1-16.1-16.1h-21.4v47h8.3V44h12.6l6.9,14.9h9.5L427.3,42C432.1,39.3,435.4,34,435.4,28
		z M419.3,35.5h-13.2V20.6h13.2c4.1,0,7.5,3.3,7.5,7.5C426.7,32.1,423.4,35.5,419.3,35.5z"/>
	<path class="st0" d="M205,76.9h-21.4v47h8.3V109h13.2c8.9,0,16.1-7.2,16.1-16.1l0,0C221.1,84.1,213.9,76.9,205,76.9z M205,100.4
		h-13.2V85.5H205c4.1,0,7.5,3.3,7.5,7.5C212.4,97.1,209.1,100.4,205,100.4z"/>
	<path class="st0" d="M255.9,51.5c-8.6,0-15.1-6.9-15.1-16s6.5-16,15.1-16c4.9,0,9.6,2.3,12.6,6.3l5.8-5.6
		c-4.5-5.7-11.2-8.9-18.4-8.9c-13.1,0-23.8,10.9-23.8,24.4s10.7,24.4,23.8,24.4c7.9,0,15.3-4,19.7-10.7l-6.3-5
		C266.4,48.7,261.4,51.5,255.9,51.5z"/>
	<path class="st0" d="M210.2,11.9h-12.1l-14.6,47h8.7l2.1-6.7H214l2.1,6.7h8.7L210.2,11.9z M196.8,44.5l7.5-24l7.5,24H196.8z"/>
	<polygon class="st0" points="517.2,76.9 480.5,76.9 480.5,85.3 494.7,85.3 494.7,123.9 494.7,123.9 503,123.9 503,123.9 503,85.3 
		517.2,85.3 	"/>
	<path class="st0" d="M464.7,11.9h-15.5l0,0l0,0V59l0,0h15.5c13,0,23.5-10.5,23.5-23.5S477.7,11.9,464.7,11.9z M480,35.4
		c0,8.2-6.7,14.9-14.9,14.9h-7.6V20.5h7.6C473.3,20.6,480,27.2,480,35.4L480,35.4z"/>
	<path class="st0" d="M372.3,76.9L372.3,76.9h-28.8v8.4h20.4v18.9c0,6.6-3.3,12.2-11.8,12.2c-7.8,0-12.3-6.2-12.3-6.2l-5.7,5.6
		c0,0,6.1,8.9,18,8.9c12,0,20.2-8.2,20.2-19.4v-0.9l0,0l0,0V76.9L372.3,76.9z"/>
	<path class="st0" d="M308.7,51.5c-8.6,0-15.1-6.9-15.1-16s6.5-16,15.1-16c4.9,0,9.6,2.3,12.6,6.3l5.8-5.6
		c-4.5-5.7-11.2-8.9-18.4-8.9c-13.1,0-23.8,10.9-23.8,24.4s10.7,24.4,23.8,24.4c7.9,0,15.3-4,19.7-10.7l-6.3-5
		C319.2,48.7,314.2,51.5,308.7,51.5z"/>
	<path class="st0" d="M361.4,11.1c-13.1,0-23.7,10.9-23.7,24.4s10.6,24.4,23.7,24.4c13.1,0,23.7-10.9,23.7-24.4
		C385.2,22,374.5,11.1,361.4,11.1z M361.4,51.4c-8.4,0-15.2-7.2-15.2-16s6.8-16,15.2-16s15.2,7.2,15.2,16S369.8,51.4,361.4,51.4z"/>
	<path class="st0" d="M303.7,76.1c-13.1,0-23.7,10.9-23.7,24.4s10.6,24.4,23.7,24.4c13.1,0,23.7-10.9,23.7-24.4
		C327.4,87,316.8,76.1,303.7,76.1z M303.7,116.4c-8.4,0-15.2-7.2-15.2-16s6.8-16,15.2-16s15.2,7.2,15.2,16S312.1,116.4,303.7,116.4z
		"/>
	<path class="st0" d="M269.7,93c0-8.9-7.2-16.1-16.1-16.1h-21.4v47h8.3V109h12.6l6.9,14.9h9.5l-7.9-16.9
		C266.4,104.2,269.7,99,269.7,93z M253.6,100.5h-13.2V85.6h13.2c4.1,0,7.5,3.3,7.5,7.5C261.1,97.1,257.7,100.5,253.6,100.5z"/>
	<polygon class="st0" points="419.7,85.3 419.7,76.9 386.4,76.9 386.4,123.9 419.7,123.9 419.7,115.6 394.7,115.6 394.7,104.6 
		413.1,104.6 413.1,96.3 394.7,96.3 394.7,85.3 	"/>
	<path class="st0" d="M453.4,116.5c-8.6,0-15.1-6.9-15.1-16s6.5-16,15.1-16c4.9,0,9.6,2.3,12.6,6.3l5.8-5.6
		c-4.5-5.7-11.2-8.9-18.4-8.9c-13.1,0-23.8,10.9-23.8,24.4s10.7,24.4,23.8,24.4c7.9,0,15.3-4,19.7-10.7l-6.3-5
		C463.9,113.7,458.9,116.5,453.4,116.5z"/>
</g>
</svg>
